<?xml version="1.0" encoding="utf-8"?>
<!-- Generator: Adobe Illustrator 27.0.0, SVG Export Plug-In . SVG Version: 6.00 Build 0)  -->
<svg version="1.1" id="Layer_1" xmlns="http://www.w3.org/2000/svg" xmlns:xlink="http://www.w3.org/1999/xlink" x="0px" y="0px"
	 viewBox="0 0 512 512" style="enable-background:new 0 0 512 512;" xml:space="preserve">
<style type="text/css">
	.st0{fill:#F46717;}
</style>
<g id="XMLID_1_">
	<path id="XMLID_7_" class="st0" d="M496.15,200.73c-8.98,0-15.85,6.87-15.85,15.85c0,8.84,6.87,15.85,15.85,15.85
		c8.98,0,15.85-6.87,15.85-15.85C512,207.75,505.13,200.73,496.15,200.73z M496.15,202.98c7.57,0,13.33,6.03,13.33,13.61
		s-5.75,13.61-13.33,13.61c-7.57,0-13.33-6.03-13.33-13.61S488.57,202.98,496.15,202.98z M492.78,217.56h3.79l5.19,8.14h2.67
		l-5.47-8.14c2.52-0.42,4.63-1.82,4.63-5.05c0-3.23-1.82-5.05-5.89-5.05h-7.01v18.24h2.24v-8.14H492.78z M492.78,215.74v-6.31h4.07
		c2.24,0,4.35,0.56,4.35,3.09c0,3.09-2.67,3.23-5.47,3.23H492.78"/>
	<path id="XMLID_13_" class="st0" d="M419.98,207.32h31.7l-28.62,78.55h67.19L481,311.27h-98.89L419.98,207.32L419.98,207.32z
		 M298.92,207.32h30.3l-13.33,36.75h37.73l13.33-36.75h31.28l-37.87,103.94h-31.14l15.57-42.78h-37.73l-15.57,42.78h-30.3
		L298.92,207.32z M207.18,311.27h31.7l37.87-103.94h-31.7L207.18,311.27z M132.98,311.27h31.56l28.62-78.55h32.82l9.26-25.39h-96.79
		l-9.26,25.39h32.4L132.98,311.27L132.98,311.27z M129.61,207.32H54.01c-10.8,0-17.96,6.87-21.32,16.13l-9.96,27.49
		c-4.49,12.2,1.82,21.32,13.89,21.32h39.42c1.54,0,2.81,1.54,2.1,3.37l-2.52,6.87c-0.7,1.96-2.95,3.37-4.63,3.37H9.26L0,311.27
		h79.82c8.84,0,16.55-4.07,21.18-16.69l9.54-26.09c4.49-12.34-1.96-21.18-13.05-21.18H57.93c-2.24,0-2.95-1.54-2.24-3.51l2.52-6.87
		c0.84-2.24,2.52-4.07,5.33-4.07h56.95L129.61,207.32"/>
</g>
</svg>
