<?xml version="1.0" encoding="utf-8"?>
<!-- Generator: Adobe Illustrator 26.5.0, SVG Export Plug-In . SVG Version: 6.00 Build 0)  -->
<svg version="1.1" id="Layer_1" xmlns="http://www.w3.org/2000/svg" xmlns:xlink="http://www.w3.org/1999/xlink" x="0px" y="0px"
	 viewBox="0 0 512 512" style="enable-background:new 0 0 512 512;" xml:space="preserve">
<style type="text/css">
	.st0{fill:#EC1B24;}
	.st1{fill:#FFFFFF;}
</style>
<g id="layer1" transform="translate(19.900137,-423.57538)">
	<g id="g2364" transform="translate(17.716528,17.792832)">
		<path id="path43" class="st0" d="M-37.46,744.15H474.4V579.21H-37.46V744.15z"/>
		<path id="path45" class="st1" d="M332.56,744.29c-2.35-0.97-9.13-4.43-9.96-11.35l-12.45,11.35h-28.92
			c-2.91-0.83-8.03-3.32-9.69-11.62l-12.04,11.62h-25.32l-10.79-35.01l-13.42,34.87h-24.22l4.57-11.76
			c-9.69,8.03-12.73,10.93-13.56,11.76h-20.62c-7.75-3.6-8.3-11.76-8.3-11.76c-10.1,8.16-13.15,10.93-14.11,11.76h-17.99
			c-6.64-3.04-8.72-11.49-8.72-11.49c-10.1,7.33-15.91,11.49-15.91,11.49H58.57l19.37-49.82H60.79l-18.68,49.82H18.03l22-61.3H24.26
			L0.73,744.29h-24.08l27.68-73.06H-37.6V650.2h73.62l-4.15,12.32h39.85l-4.57,12.73h40.13l-18.4,50.51h18.82l14.67-36.39
			c0,0,5.67-14.25,18.82-14.25h50.78l-17.99,50.92h18.82l28.92-75.97h22.83l-17.71,50.23l26.29-25.05h27.4l-33.07,32.38l4.84,18.96
			l20.34-0.14l20.34-51.48h22.83l-18.4,51.34h26.29l13.15-34.59h-15.36l6.09-16.74h14.67l10.1-24.77h23.66l-8.99,23.94h13.98
			l-5.67,17.16h-15.08l-12.45,34.59h26.29l12.45-33.07c0,0,5.26-17.02,20.62-17.44h49.54l-18.4,50.37h35.98v18.54h-48.02
			c0,0-11.21-1.52-13.15-11.62l-11.62,11.62h-16.47c0,0-10.52-1.52-12.04-11.62l-12.04,11.62H332.56z M413.38,726.58l12.73-31.97
			h-16.19l-12.73,31.97H413.38z M148.93,726.58l12.73-31.97h-16.19l-12.87,31.97H148.93"/>
		<path id="path47" class="st1" d="M294.78,668.88l6.78-18.96h22.83l-6.78,18.96H294.78"/>
		<path id="path49" class="st1" d="M447.69,639.82h-3.74v-3.46h4.01c0.83,0,2.08,0.14,2.08,1.66
			C450.05,639.68,448.8,639.82,447.69,639.82z M451.57,644.25l-0.14-1.8c0-1.38-0.69-1.66-1.38-1.94c0.69-0.42,1.52-0.97,1.52-2.49
			c0-2.21-1.94-2.77-3.87-2.77h-5.4v10.24h1.52v-4.43h3.87c1.94,0,2.21,0.97,2.21,1.8c0,0.42,0,1.94,0.28,2.49h1.94v-0.28
			C451.71,644.94,451.57,644.8,451.57,644.25"/>
		<path id="path51" class="st1" d="M447,648.95c-2.35,0-4.43-0.83-6.09-2.49c-1.66-1.66-2.63-3.74-2.63-6.09
			c0-2.35,0.97-4.43,2.63-6.09c1.66-1.66,3.74-2.49,6.09-2.49s4.57,0.83,6.09,2.49c1.66,1.66,2.49,3.74,2.49,6.09
			C455.58,645.08,451.71,648.95,447,648.95z M453.78,633.59c-1.8-1.8-4.29-2.77-6.78-2.77c-5.26,0-9.55,4.29-9.55,9.55
			c0,2.49,0.97,4.98,2.77,6.78c1.8,1.8,4.15,2.77,6.78,2.77s4.98-0.97,6.78-2.77c1.8-1.8,2.77-4.29,2.77-6.78
			C456.55,637.74,455.58,635.39,453.78,633.59"/>
	</g>
</g>
</svg>
