<?xml version="1.0" encoding="UTF-8" standalone="no"?>
<!-- Created with Inkscape (http://www.inkscape.org/) -->

<svg
   xmlns:dc="http://purl.org/dc/elements/1.1/"
   xmlns:cc="http://creativecommons.org/ns#"
   xmlns:rdf="http://www.w3.org/1999/02/22-rdf-syntax-ns#"
   xmlns:svg="http://www.w3.org/2000/svg"
   xmlns="http://www.w3.org/2000/svg"
   xmlns:sodipodi="http://sodipodi.sourceforge.net/DTD/sodipodi-0.dtd"
   xmlns:inkscape="http://www.inkscape.org/namespaces/inkscape"
   width="169.5132"
   height="62.615181"
   viewBox="0 0 44.850368 16.566933"
   version="1.1"
   id="svg647"
   inkscape:version="0.92.0 r15299"
   sodipodi:docname="stiga.svg">
  <defs
     id="defs641">
    <clipPath
       id="clipPath36"
       clipPathUnits="userSpaceOnUse">
      <path
         inkscape:connector-curvature="0"
         id="path34"
         d="M 0,0 H 419.528 V 595.276 H 0 Z" />
    </clipPath>
  </defs>
  <sodipodi:namedview
     id="base"
     pagecolor="#ffffff"
     bordercolor="#666666"
     borderopacity="1.0"
     inkscape:pageopacity="0.0"
     inkscape:pageshadow="2"
     inkscape:zoom="5.323025"
     inkscape:cx="84.256602"
     inkscape:cy="30.807591"
     inkscape:document-units="mm"
     inkscape:current-layer="layer1"
     showgrid="false"
     fit-margin-top="0"
     fit-margin-left="0"
     fit-margin-right="0"
     fit-margin-bottom="0"
     units="px"
     inkscape:window-width="1280"
     inkscape:window-height="744"
     inkscape:window-x="-4"
     inkscape:window-y="-4"
     inkscape:window-maximized="1" />
  <metadata
     id="metadata644">
    <rdf:RDF>
      <cc:Work
         rdf:about="">
        <dc:format>image/svg+xml</dc:format>
        <dc:type
           rdf:resource="http://purl.org/dc/dcmitype/StillImage" />
        <dc:title></dc:title>
      </cc:Work>
    </rdf:RDF>
  </metadata>
  <g
     inkscape:label="Layer 1"
     inkscape:groupmode="layer"
     id="layer1"
     transform="translate(-81.272585,-183.50686)">
    <g
       id="g715"
       transform="translate(0.1322911,-0.13228784)">
      <path
         d="m 95.602029,194.28009 h 1.635478 v 5.70689 h 2.470502 v -5.70689 h 1.635481 v -2.43593 h -5.741461 z"
         style="fill:#000000;fill-opacity:1;fill-rule:nonzero;stroke:none;stroke-width:0.35277778"
         id="path26"
         inkscape:connector-curvature="0" />
      <path
         inkscape:connector-curvature="0"
         id="path28"
         style="fill:#000000;fill-opacity:1;fill-rule:nonzero;stroke:none;stroke-width:0.35277778"
         d="m 102.73523,191.87898 h 2.47051 v 8.10753 h -2.47051 z" />
      <path
         d="m 114.92046,195.24144 c 0.0303,0.20285 0.0462,0.46284 0.0462,0.67416 0,2.29623 -1.8616,4.15819 -4.15854,4.15819 -2.29623,0 -4.15784,-1.86196 -4.15784,-4.15819 0,-2.29658 1.86161,-4.15819 4.15784,-4.15819 0.90629,0 1.74449,0.28963 2.42746,0.7814 l -1.32962,1.71274 c -0.31503,-0.20779 -0.69179,-0.32915 -1.09784,-0.32915 -1.10031,0 -1.99284,0.89253 -1.99284,1.9932 0,1.10066 0.89253,1.99284 1.99284,1.99284 0.77505,0 1.44639,-0.44203 1.77624,-1.08726 h -1.58468 v -1.58397 z"
         style="fill:#000000;fill-opacity:1;fill-rule:nonzero;stroke:none;stroke-width:0.35277778"
         id="path40"
         inkscape:connector-curvature="0" />
      <path
         d="m 86.206674,197.5684 c 0,0 0.974372,0.26811 3.688644,-3.11432 2.401006,-2.99262 4.418895,-2.60985 4.610453,-2.60985 v 2.50543 c 0,0 -1.579739,-0.22931 -3.653719,2.78377 -1.844323,2.67934 -3.758142,2.8709 -4.645378,2.8709 z"
         style="fill:#000000;fill-opacity:1;fill-rule:nonzero;stroke:none;stroke-width:0.35277778"
         id="path44"
         inkscape:connector-curvature="0" />
      <path
         d="m 123.30073,195.20221 c -1.46297,-2.06446 -2.29658,-3.4103 -3.63643,-3.4103 h -3.16654 v 8.07296 h 2.45322 v -1.53105 h 3.79307 c 0,0 0.9218,1.4792 3.11432,1.4792 v -2.59257 c 0,0 -1.28764,-0.22613 -2.55764,-2.01824 m -4.34975,1.00894 v -2.03552 c 0,0 0.67874,-0.0522 0.85266,0.27834 0.13053,0.24835 1.35679,1.75718 1.35679,1.75718 z"
         style="fill:#000000;fill-opacity:1;fill-rule:nonzero;stroke:none;stroke-width:0.35277778"
         id="path48"
         inkscape:connector-curvature="0" />
      <path
         inkscape:connector-curvature="0"
         id="path50"
         style="fill:#ffa400;fill-opacity:1;fill-rule:nonzero;stroke:none;stroke-width:0.35277778"
         d="m 81.272585,199.97805 h 2.453217 v -16.20661 h -2.453217 z" />
    </g>
  </g>
</svg>
