<svg id="Layer_1" data-name="Layer 1" xmlns="http://www.w3.org/2000/svg" width="479.65" height="86.73" viewBox="0 0 479.65 86.73"><defs><style>.cls-1{fill:#ff8e00;}.cls-2{fill:none;}</style></defs><title>fiskars-logo-freelogovectors.net</title><rect class="cls-1" x="81.19" y="18.12" width="12.23" height="50.49"/><path class="cls-1" d="M374.34,275.26h14.8l-20-21.22c7.09-.59,16.88-3.41,16.88-14.57,0-13.08-13.43-14.71-20.21-14.71H326.06a5.68,5.68,0,0,0-5.68,5.68v44.82H332.6V254.16h21.88l19.86,21.1M332.6,233.08h32.3c4.25,0,8.92,1.25,8.92,6.38s-4.67,6.38-8.92,6.38H332.6Z" transform="translate(-10.18 -206.64)"/><path class="cls-1" d="M287.28,230.43c-3-4.16-5.17-6.18-9.75-6.18s-6.69,2-9.73,6.18c-2.31,3.18-19.09,27.59-26.91,39l-24.56-26.09,27.81-18.46H227.28l-37.92,25.18V224.76H177.13v50.49h12.23v-14l17.28-11.48,24,25.48h20.14l7.45-10.9h38.6l7.45,10.9h13.92s-27.88-40.64-30.91-44.81M263.92,256l13.61-19.89L291.13,256Z" transform="translate(-10.18 -206.64)"/><path class="cls-1" d="M30,224.76a5.67,5.67,0,0,0-5.68,5.67v44.82H36.56V254.16H85.12v-8.33H36.56V233.08H85.12v-8.32H30" transform="translate(-10.18 -206.64)"/><path class="cls-1" d="M436.31,246.11,411.09,244c-7.34-.61-9.37-1.95-9.37-4.71,0-6.82,14.62-7.37,20.27-7.37,8.08,0,18.82,2,26.23,5.18l3-8.57c-8.11-3.39-20.1-4.78-29-4.78-11.17,0-32.87,2-32.87,16.73,0,7.3,6.11,11.5,18.14,12.51l25.22,2.13c7.34.62,10.12,2.42,10.12,5.64,0,6.81-14.84,7.37-21.17,7.37-10.9,0-22.33-3.25-29.7-7.53l-2.95,9c8.32,4.12,21.23,6.73,33.3,6.73,11.17,0,32.86-2,32.86-16.73,0-9.08-8-12.51-18.89-13.43" transform="translate(-10.18 -206.64)"/><path class="cls-1" d="M155.06,246.11,129.84,244c-7.34-.61-9.37-1.95-9.37-4.71,0-6.82,14.61-7.37,20.28-7.37A73.74,73.74,0,0,1,167,237.07l3-8.56c-8.11-3.4-20.09-4.78-29-4.78-11.17,0-32.87,2-32.87,16.73,0,7.3,6.11,11.5,18.13,12.51l25.22,2.13c7.34.62,10.12,2.42,10.12,5.64,0,6.81-14.84,7.37-21.16,7.37-10.91,0-22.34-3.25-29.72-7.53l-2.94,9c8.32,4.12,21.23,6.73,33.3,6.73,11.16,0,32.86-2,32.86-16.73,0-9.09-8-12.51-18.88-13.43" transform="translate(-10.18 -206.64)"/><path class="cls-1" d="M466,223.73a9.67,9.67,0,1,0,9.66,9.67,9.67,9.67,0,0,0-9.66-9.67m0,17.89a8.23,8.23,0,1,1,8.22-8.22,8.23,8.23,0,0,1-8.22,8.22" transform="translate(-10.18 -206.64)"/><path class="cls-1" d="M468.92,238.14h2.88L467.92,234c1.38-.11,3.28-.66,3.28-2.83,0-2.54-2.61-2.87-3.94-2.87H462.2a1.11,1.11,0,0,0-1.11,1.11v8.71h2.38V234h1.74l3.71,4.1M463.46,230h3.62c.83,0,1.74.25,1.74,1.24s-.91,1.23-1.74,1.23h-3.62Z" transform="translate(-10.18 -206.64)"/><rect class="cls-2" x="14.16" y="17.1" width="451.33" height="52.53"/><rect class="cls-2" width="479.65" height="86.73"/></svg>